<svg width="213" height="38" viewBox="0 0 213 38" fill="none" xmlns="http://www.w3.org/2000/svg">
<mask id="mask0_702_2926" style="mask-type:luminance" maskUnits="userSpaceOnUse" x="0" y="5" width="28" height="28">
<path d="M10.3848 15.4229C10.6873 14.2941 11.8474 13.6243 12.9762 13.9268C14.7097 14.3912 13.3461 15.6264 17.4302 16.7208C20.7993 17.6236 20.9978 16.0762 22.5664 16.4965C23.6951 16.799 24.365 17.9591 24.0625 19.0879C23.6422 20.6567 22.2026 20.0547 21.3001 23.4239C20.3937 26.8069 21.9001 27.1587 21.4931 28.6782C21.1906 29.8069 20.0305 30.4768 18.9017 30.1743C17.3329 29.754 17.9349 28.3147 14.5658 27.4119C10.4816 26.3175 11.0453 28.0693 9.31152 27.6048C8.18276 27.3023 7.51288 26.1422 7.81538 25.0135C8.11788 23.8847 9.27797 23.2148 10.4067 23.5173C12.1402 23.9817 10.7769 25.2173 14.8608 26.3114C17.0332 26.8936 17.8348 26.6408 18.3948 26.3616C18.9347 25.9903 19.589 25.4077 20.1996 23.1294C20.7907 20.9229 20.5209 20.1307 20.2365 19.569C19.8921 19.0421 19.3403 18.4127 17.1355 17.8221C13.0513 16.7278 13.615 18.4796 11.8812 18.0151C10.7525 17.7126 10.0826 16.5525 10.3851 15.4238M28 19.0008C27.9997 11.268 21.7318 5 13.9999 5C6.26794 5 0 11.268 0 19C0 26.732 6.26794 33 13.9999 33C21.7318 33 27.9997 26.732 27.9997 19L28 19.0008ZM14.0001 32.0667C6.78394 32.0667 0.934395 26.2168 0.934395 19.0008C0.934395 11.7848 6.78394 5.93413 13.9999 5.93413C21.2158 5.93413 27.0656 11.784 27.0656 19C27.0656 26.216 21.2158 32.0659 13.9999 32.0659L14.0001 32.0667ZM5.43364 21.5043C4.30488 21.2018 3.63499 20.0417 3.93749 18.9129C4.38722 17.2338 5.85342 17.7356 6.73153 14.4588C7.60521 11.1984 6.05139 11.0229 6.50722 9.32266C6.80972 8.19389 7.96982 7.524 9.09858 7.82651C10.7774 8.27652 10.2759 9.74273 13.5523 10.6206C17.5727 11.6978 16.8979 9.9163 18.6885 10.3963C19.8172 10.6988 20.4871 11.8589 20.1846 12.9876C19.8821 14.1164 18.722 14.7863 17.5933 14.4838C15.8024 14.0038 17.2783 12.7985 13.2573 11.7211C10.9793 11.1108 10.1472 11.3858 9.55579 11.6678C9.03342 12.0133 8.414 12.5809 7.83174 14.7539C7.23034 16.9987 7.48876 17.8393 7.76602 18.4291C8.13812 18.9645 8.73619 19.6092 10.9823 20.2108C15.0027 21.288 14.3279 19.5066 16.1185 19.9865C17.2472 20.289 17.9171 21.4491 17.6146 22.5779C17.3121 23.7067 16.152 24.3766 15.0233 24.0741C13.2324 23.5941 14.7083 22.3888 10.6873 21.3116C7.41057 20.4335 7.11222 21.9546 5.43308 21.5046L5.43364 21.5043Z" fill="white"/>
</mask>
<g mask="url(#mask0_702_2926)">
<path d="M27.9997 5H0V33H27.9997V5Z" fill="url(#paint0_linear_702_2926)"/>
</g>
<path fill-rule="evenodd" clip-rule="evenodd" d="M41.4786 18.1909H38.0545V14.6278H41.3301C42.1469 14.6278 42.7532 14.7826 43.1517 15.0921C43.5475 15.4011 43.7465 15.8341 43.7465 16.3909C43.7465 16.9847 43.5446 17.4331 43.1432 17.736C42.7388 18.039 42.1859 18.1905 41.4786 18.1905M40.8753 12.7161H38.0545V9.24604H41.0242C41.698 9.24604 42.2084 9.39144 42.5623 9.68505C42.9132 9.97586 43.0901 10.3901 43.0901 10.925C43.0901 11.5342 42.8882 11.9858 42.4868 12.2766C42.0824 12.5702 41.5465 12.7156 40.8757 12.7156L40.8753 12.7161ZM55.6865 11.4636C55.6865 12.1349 55.4676 12.6698 55.0271 13.0658C54.5892 13.4646 53.9969 13.6628 53.2531 13.6628H50.2134V9.28344H53.2361C54.0135 9.28344 54.6168 9.46625 55.0437 9.8342C55.4731 10.1989 55.6865 10.7436 55.6865 11.464V11.4636ZM58.1619 20.2126L54.9792 15.2955C55.3946 15.1716 55.7735 14.9953 56.1159 14.7667C56.4583 14.5376 56.7532 14.2594 57.0001 13.9317C57.2471 13.6039 57.441 13.2266 57.581 12.7998C57.7215 12.3729 57.7915 11.8876 57.7915 11.3434C57.7915 10.7122 57.6905 10.1404 57.4885 9.62708C57.2865 9.11373 56.9972 8.68079 56.6212 8.32826C56.2453 7.97574 55.7849 7.70364 55.2405 7.51195C54.6962 7.32026 54.0869 7.22441 53.4131 7.22441H48.1589V20.2135H50.2134V15.6859H52.8152L55.72 20.2135H58.1619V20.2126ZM66.4308 7.13044H64.5108L59.3236 20.2126H61.4456C63.6325 14.5558 63.1415 15.7588 65.437 9.85851C67.3714 14.7905 67.6892 15.6517 69.428 20.2126H71.6175L66.4308 7.13044ZM81.8568 16.2044L75.5554 7.22301H73.6384V20.2121H75.6929V10.9712L82.1793 20.2121H83.9109V7.22301H81.8564V16.2044H81.8568ZM95.4303 13.7363C95.4303 14.3824 95.3319 14.9762 95.1354 15.5148C94.939 16.0557 94.6611 16.5228 94.3076 16.9127C93.9542 17.3054 93.5218 17.6084 93.0165 17.8281C92.5086 18.0446 91.9468 18.1531 91.3269 18.1531H88.9974V9.28297H91.3269C91.9472 9.28297 92.5086 9.39425 93.0165 9.61726C93.5218 9.84308 93.9537 10.1521 94.3076 10.5514C94.6611 10.9474 94.939 11.4173 95.1354 11.9587C95.3319 12.4968 95.4303 13.0906 95.4303 13.7372V13.7363ZM97.6028 13.6988C97.6028 12.7834 97.4513 11.9297 97.1479 11.1382C96.8445 10.3466 96.4156 9.65981 95.8597 9.07819C95.3039 8.49705 94.6415 8.04213 93.8727 7.71439C93.1039 7.38665 92.2586 7.22255 91.3383 7.22255H86.9429V20.2116H91.3383C92.2591 20.2116 93.1039 20.0447 93.8727 19.7109C94.642 19.3766 95.3043 18.9189 95.8597 18.3377C96.4156 17.7561 96.845 17.0665 97.1479 16.2684C97.4513 15.4703 97.6028 14.6138 97.6028 13.6984V13.6988ZM147.501 14.7377V20.2116H149.556V7.22255H147.501V12.6226H141.843V7.22255H139.788V20.2116H141.843V14.7377H147.501ZM137.616 18.1334L136.285 16.649C135.78 17.1689 135.27 17.5799 134.753 17.8828C134.236 18.1858 133.619 18.3377 132.9 18.3377C132.339 18.3377 131.82 18.2171 131.343 17.9759C130.865 17.7346 130.453 17.4036 130.105 16.9833C129.757 16.5625 129.488 16.0711 129.297 15.5082C129.106 14.9453 129.011 14.3422 129.011 13.6988C129.011 13.0555 129.106 12.4557 129.297 11.8988C129.488 11.3425 129.757 10.8567 130.105 10.4425C130.453 10.0282 130.866 9.70002 131.343 9.45924C131.82 9.21799 132.339 9.09736 132.9 9.09736C133.574 9.09736 134.175 9.24604 134.702 9.54246C135.23 9.83934 135.73 10.2293 136.201 10.7113L137.532 9.02256C137.251 8.72567 136.953 8.45356 136.639 8.20624C136.325 7.95891 135.982 7.74525 135.612 7.56618C135.242 7.38712 134.835 7.24779 134.391 7.14867C133.947 7.04956 133.456 7 132.917 7C132.019 7 131.2 7.17626 130.458 7.52925C129.718 7.88177 129.078 8.36426 128.539 8.97627C128 9.58874 127.582 10.3031 127.284 11.1195C126.987 11.9358 126.838 12.8082 126.838 13.7358C126.838 14.6634 126.989 15.554 127.293 16.3708C127.596 17.1871 128.014 17.8954 128.547 18.4958C129.081 19.0956 129.712 19.5688 130.442 19.9152C131.172 20.2616 131.969 20.4346 132.833 20.4346C133.383 20.4346 133.886 20.3823 134.34 20.2771C134.795 20.1719 135.213 20.0171 135.595 19.8133C135.977 19.609 136.333 19.3677 136.664 19.0895C136.996 18.8113 137.313 18.4925 137.616 18.1339V18.1334ZM124.8 7.22208H116.077V20.2111H124.884V18.1517H118.131V14.6816H124.042V12.6216H118.131V9.28157H124.8V7.22208ZM110.149 9.33768H113.887V7.22208H104.322V9.33768H108.061V20.2116H110.149V9.33768ZM139.211 26.4275H136.193V30.9215H139.24V30.2089H136.904V29.0083H138.949V28.2958H136.904V27.14H139.211V26.4275H139.211ZM132.263 27.8946C132.263 28.127 132.187 28.3121 132.034 28.4491C131.883 28.587 131.678 28.6553 131.421 28.6553H130.369V27.14H131.415C131.684 27.14 131.893 27.2031 132.04 27.3303C132.189 27.4565 132.263 27.645 132.263 27.8942V27.8946ZM133.119 30.9219L132.018 29.2206C132.161 29.1775 132.292 29.1168 132.411 29.0378C132.529 28.9587 132.631 28.8624 132.717 28.7488C132.803 28.6357 132.869 28.5048 132.918 28.3575C132.967 28.2097 132.991 28.0419 132.991 27.8535C132.991 27.6351 132.956 27.4374 132.886 27.2597C132.816 27.0821 132.716 26.932 132.586 26.8104C132.456 26.6884 132.297 26.5944 132.108 26.528C131.92 26.4616 131.709 26.4284 131.476 26.4284H129.658V30.9224H130.369V29.3557H131.269L132.274 30.9224H133.119L133.119 30.9219ZM126.45 26.428H123.432V30.9219H126.479V30.2094H124.143V29.0088H126.188V28.2962H124.143V27.1405H126.45V26.428H126.45ZM119.35 29.0279V30.9219H120.061V26.428H119.35V28.2962H117.392V26.428H116.682V30.9219H117.392V29.0279H119.35ZM110.852 29.5352L108.672 26.428H108.008V30.9219H108.719V27.7249L110.963 30.9219H111.562V26.428H110.852V29.5352ZM103.192 26.3957H102.528L100.733 30.9219H101.467C102.242 28.9185 102.042 29.4122 102.848 27.3397C103.54 29.1051 103.598 29.2659 104.229 30.9219H104.987L103.192 26.3957ZM97.8281 30.2992V28.4117H96.0918V29.0985H97.1348V29.9438C97.0104 30.0476 96.864 30.1299 96.6948 30.193C96.5259 30.2552 96.3443 30.2861 96.1499 30.2861C95.9403 30.2861 95.7507 30.2454 95.5818 30.164C95.4129 30.0827 95.267 29.9691 95.1448 29.826C95.0221 29.6825 94.9279 29.5128 94.8618 29.3145C94.796 29.1177 94.7629 28.9026 94.7629 28.6717C94.7629 28.4533 94.7968 28.2467 94.8647 28.0545C94.9326 27.861 95.026 27.6917 95.1443 27.5463C95.2627 27.4004 95.4023 27.285 95.5636 27.2017C95.7248 27.1181 95.8988 27.0764 96.085 27.0764C96.2132 27.0764 96.3307 27.0881 96.4376 27.112C96.5445 27.1354 96.6426 27.1676 96.7321 27.2083C96.8212 27.249 96.9069 27.299 96.9884 27.3593C97.0698 27.4191 97.1496 27.4855 97.2273 27.558L97.6817 26.961C97.5769 26.8628 97.4691 26.7758 97.3584 26.701C97.2476 26.6262 97.1301 26.5631 97.0058 26.5117C96.8814 26.4602 96.7465 26.421 96.6006 26.3929C96.455 26.3653 96.2929 26.3513 96.1143 26.3513C95.8075 26.3513 95.5249 26.4135 95.2665 26.5374C95.0081 26.6617 94.7858 26.8296 94.5995 27.0414C94.4128 27.2532 94.2681 27.5005 94.1655 27.7829C94.0624 28.0653 94.011 28.365 94.011 28.682C94.011 28.999 94.0615 29.3173 94.1625 29.6002C94.2635 29.8826 94.4065 30.1276 94.5906 30.3352C94.7752 30.5428 94.9975 30.7055 95.2581 30.8233C95.5182 30.9411 95.8075 31 96.1262 31C96.3048 31 96.4758 30.9818 96.6387 30.9453C96.8017 30.9088 96.9544 30.8588 97.0961 30.7943C97.2379 30.7302 97.3698 30.655 97.492 30.5694C97.6142 30.4838 97.7262 30.3941 97.8272 30.2996L97.8281 30.2992ZM90.2504 28.6815C90.2504 28.8998 90.2165 29.1065 90.1486 29.301C90.0807 29.4959 89.9865 29.6647 89.866 29.8083C89.7455 29.9518 89.6008 30.0649 89.4319 30.1486C89.263 30.2318 89.0776 30.2739 88.8752 30.2739C88.6728 30.2739 88.487 30.2309 88.316 30.1453C88.145 30.0598 87.9986 29.9443 87.876 29.7989C87.7538 29.653 87.6587 29.4833 87.5904 29.2884C87.5225 29.0934 87.4886 28.8872 87.4886 28.6689C87.4886 28.4505 87.5225 28.2439 87.5904 28.0494C87.6583 27.8549 87.7525 27.6856 87.873 27.5426C87.9935 27.399 88.1382 27.2859 88.3071 27.2022C88.476 27.1185 88.6614 27.0769 88.8634 27.0769C89.0653 27.0769 89.2516 27.1199 89.4226 27.2055C89.5936 27.291 89.74 27.4065 89.8626 27.5524C89.9852 27.6978 90.0803 27.868 90.1481 28.0629C90.216 28.2579 90.25 28.4641 90.25 28.6824L90.2504 28.6815ZM91.0019 28.6684C91.0019 28.3519 90.9497 28.0522 90.8444 27.7698C90.7396 27.4874 90.5941 27.2415 90.4074 27.0316C90.2211 26.8221 89.9975 26.6561 89.7374 26.5341C89.4773 26.4121 89.1896 26.3513 88.8752 26.3513C88.5608 26.3513 88.2731 26.4135 88.013 26.5374C87.7529 26.6617 87.5272 26.8296 87.3371 27.0414C87.1466 27.2532 86.9994 27.5005 86.8941 27.7829C86.7893 28.0653 86.7367 28.365 86.7367 28.682C86.7367 28.999 86.7893 29.2982 86.8941 29.5806C86.999 29.863 87.1449 30.1089 87.3312 30.3188C87.5179 30.5283 87.7411 30.6942 88.0012 30.8163C88.2613 30.9383 88.5489 30.9991 88.8634 30.9991C89.1778 30.9991 89.4654 30.9369 89.7255 30.813C89.9856 30.6886 90.2109 30.5208 90.4015 30.309C90.5915 30.0972 90.7392 29.8499 90.8444 29.5675C90.9492 29.2851 91.0019 28.9854 91.0019 28.6684ZM81.2216 30.9219H84.0768V30.2094H81.9327V26.428H81.2216V30.9219ZM75.7706 27.6029C75.7706 27.4533 75.8287 27.3256 75.9454 27.2209C76.0621 27.1162 76.225 27.0638 76.4346 27.0638C76.6213 27.0638 76.8054 27.1036 76.9883 27.1826C77.1708 27.2616 77.3553 27.3761 77.542 27.5257L77.9265 26.9287C77.7168 26.745 77.4924 26.6047 77.2535 26.5084C77.0146 26.4121 76.7456 26.3639 76.4465 26.3639C76.2445 26.3639 76.0582 26.3952 75.8881 26.457C75.7171 26.5191 75.5716 26.608 75.4502 26.7235C75.3289 26.8389 75.2338 26.9769 75.1638 27.1372C75.0946 27.2976 75.0598 27.4767 75.0598 27.673C75.0598 27.8829 75.09 28.0606 75.1502 28.206C75.2105 28.3519 75.2987 28.4758 75.4133 28.5786C75.5279 28.6815 75.6704 28.767 75.8397 28.8353C76.0099 28.9036 76.2029 28.9658 76.4214 29.0214C76.6115 29.0728 76.766 29.1219 76.8856 29.1691C77.004 29.2159 77.0974 29.2664 77.1665 29.3201C77.2344 29.3734 77.2811 29.4324 77.3065 29.4964C77.3316 29.5605 77.3443 29.6334 77.3443 29.7147C77.3443 29.8901 77.2794 30.0294 77.1491 30.1323C77.0189 30.2351 76.8432 30.2865 76.6217 30.2865C76.3654 30.2865 76.1363 30.2365 75.9343 30.1355C75.7324 30.035 75.5325 29.8905 75.334 29.7021L74.9029 30.2669C75.1477 30.511 75.4137 30.6919 75.701 30.8092C75.9887 30.9271 76.2895 30.986 76.6043 30.986C76.8177 30.986 77.0142 30.9561 77.1928 30.8962C77.3706 30.8364 77.5238 30.7485 77.6502 30.633C77.7775 30.5175 77.8764 30.3763 77.9485 30.2094C78.0194 30.0425 78.0554 29.8522 78.0554 29.6381C78.0554 29.4497 78.0274 29.286 77.971 29.1467C77.9146 29.0078 77.831 28.8858 77.7224 28.7806C77.6137 28.6759 77.4758 28.587 77.3104 28.5141C77.1453 28.4412 76.9552 28.3748 76.7414 28.3149C76.5462 28.2635 76.3858 28.2144 76.2585 28.1672C76.1321 28.1205 76.0332 28.069 75.9602 28.0134C75.8885 27.9577 75.8389 27.8979 75.8117 27.8334C75.7846 27.7693 75.771 27.6922 75.771 27.6019L75.7706 27.6029ZM69.4921 27.8951C69.4921 28.1275 69.4162 28.3126 69.2638 28.4496C69.1124 28.5875 68.9074 28.6558 68.6503 28.6558H67.5984V27.1405H68.6444C68.9134 27.1405 69.1221 27.2036 69.2698 27.3308C69.4183 27.457 69.4921 27.6454 69.4921 27.8946V27.8951ZM70.3484 30.9224L69.2473 29.221C69.3911 29.178 69.5218 29.1172 69.6406 29.0382C69.759 28.9592 69.8613 28.8629 69.9465 28.7493C70.0318 28.6361 70.0989 28.5052 70.1477 28.358C70.1965 28.2102 70.2206 28.0424 70.2206 27.854C70.2206 27.6356 70.1859 27.4378 70.1158 27.2602C70.0458 27.0825 69.9461 26.9324 69.8159 26.8109C69.6856 26.6889 69.5265 26.5949 69.3381 26.5285C69.1497 26.4621 68.9388 26.4289 68.7059 26.4289H66.8882V30.9229H67.5989V29.3561H68.4988L69.504 30.9229H70.3488L70.3484 30.9224ZM63.5807 26.4284H62.87V29.0158C62.87 29.4309 62.7779 29.7433 62.5942 29.9532C62.4105 30.1631 62.1593 30.2678 61.8385 30.2678C61.5177 30.2678 61.2606 30.1584 61.0773 29.9406C60.894 29.7222 60.8015 29.4034 60.8015 28.984V26.4289H60.0908V29.0162C60.0908 29.3416 60.1315 29.6273 60.213 29.8732C60.2945 30.1192 60.4111 30.3258 60.5626 30.4927C60.7141 30.6596 60.8965 30.7849 61.1104 30.8682C61.3238 30.9514 61.5627 30.9935 61.827 30.9935C62.0914 30.9935 62.3371 30.9514 62.5526 30.8682C62.7681 30.7849 62.9519 30.6582 63.1034 30.4894C63.2548 30.3207 63.3724 30.1098 63.4559 29.8573C63.5395 29.6044 63.5811 29.3117 63.5811 28.9779V26.4289L63.5807 26.4284ZM56.2126 28.682C56.2126 28.9003 56.1787 29.107 56.1108 29.3014C56.0429 29.4964 55.9487 29.6652 55.8282 29.8087C55.7077 29.9523 55.563 30.0654 55.3941 30.1491C55.2253 30.2323 55.0399 30.2744 54.8375 30.2744C54.6351 30.2744 54.4492 30.2314 54.2782 30.1458C54.1072 30.0603 53.9604 29.9448 53.8382 29.7994C53.716 29.6535 53.621 29.4838 53.5527 29.2888C53.4848 29.0939 53.4508 28.8877 53.4508 28.6693C53.4508 28.451 53.4848 28.2443 53.5527 28.0499C53.6206 27.8554 53.7147 27.6861 53.8352 27.543C53.9558 27.3995 54.1004 27.2864 54.2693 27.2027C54.4382 27.119 54.6236 27.0774 54.8256 27.0774C55.0275 27.0774 55.2142 27.1204 55.3848 27.2059C55.5558 27.2915 55.7022 27.407 55.8248 27.5529C55.9474 27.6983 56.0425 27.8684 56.1104 28.0634C56.1783 28.2584 56.2122 28.4646 56.2122 28.6829L56.2126 28.682ZM56.9641 28.6689C56.9641 28.3523 56.9119 28.0527 56.8067 27.7703C56.7019 27.4879 56.5559 27.242 56.3696 27.032C56.1834 26.8226 55.9597 26.6566 55.6996 26.5346C55.4395 26.4125 55.1519 26.3518 54.8375 26.3518C54.523 26.3518 54.2354 26.4139 53.9753 26.5378C53.7152 26.6622 53.4899 26.83 53.2994 27.0418C53.1088 27.2536 52.9612 27.501 52.8564 27.7834C52.7516 28.0657 52.699 28.3654 52.699 28.6824C52.699 28.9994 52.7516 29.2986 52.8564 29.581C52.9612 29.8634 53.1071 30.1093 53.2934 30.3193C53.4801 30.5287 53.7033 30.6947 53.9634 30.8167C54.2235 30.9388 54.5112 30.9995 54.8256 30.9995C55.14 30.9995 55.4277 30.9374 55.6878 30.8135C55.9479 30.6891 56.1732 30.5212 56.3637 30.3094C56.5538 30.0977 56.7014 29.8503 56.8067 29.5679C56.9115 29.2855 56.9641 28.9859 56.9641 28.6689ZM48.6579 29.1313L50.2774 26.4284H49.456L48.3023 28.4187L47.1605 26.4284H46.3157L47.9357 29.1504V30.9224H48.6583V29.1313H48.6579ZM41.2801 7.22348H36V20.2126H41.4481C42.0964 20.2126 42.6917 20.1354 43.2306 19.9807C43.7665 19.8259 44.2269 19.5973 44.6087 19.2971C44.9906 18.9942 45.2825 18.6197 45.49 18.1746C45.6975 17.729 45.8015 17.2189 45.8015 16.6373C45.8015 16.1922 45.7454 15.799 45.633 15.4619C45.5235 15.1216 45.3636 14.8279 45.1557 14.5806C44.9507 14.3333 44.7038 14.1201 44.4203 13.9406C44.1339 13.7643 43.8195 13.6067 43.4746 13.4707C43.685 13.3468 43.8955 13.1986 44.1004 13.0223C44.3054 12.8493 44.4848 12.6483 44.6363 12.4192C44.7852 12.1901 44.9087 11.9213 45.0012 11.6122C45.0967 11.2999 45.1442 10.9474 45.1442 10.5514C45.1442 9.52142 44.7963 8.71118 44.103 8.11741C43.4067 7.52036 42.4664 7.22348 41.2792 7.22348H41.2801Z" fill="#21252B"/>
<ellipse cx="200.5" cy="16.5" rx="12.5" ry="11.5" fill="#FAFAFA"/>
<defs>
<linearGradient id="paint0_linear_702_2926" x1="9.24082" y1="11.1435" x2="20.0442" y2="28.9775" gradientUnits="userSpaceOnUse">
<stop stop-color="#007F7E"/>
<stop offset="1" stop-color="#CCFF66"/>
</linearGradient>
</defs>
</svg>
