<svg width="28" height="28" viewBox="0 0 28 28" fill="none" xmlns="http://www.w3.org/2000/svg">
<path d="M19.833 24.5007H8.16634C3.49967 24.5007 2.33301 23.3341 2.33301 18.6674V9.33407C2.33301 4.6674 3.49967 3.50073 8.16634 3.50073H19.833C24.4997 3.50073 25.6663 4.6674 25.6663 9.33407V18.6674C25.6663 23.3341 24.4997 24.5007 19.833 24.5007Z" stroke="#292C32" stroke-width="1.75" stroke-linecap="round" stroke-linejoin="round"/>
<path d="M16.333 9.33408H22.1663" stroke="#292C32" stroke-width="1.75" stroke-linecap="round" stroke-linejoin="round"/>
<path d="M17.4995 14.0007H22.1662" stroke="#292C32" stroke-width="1.75" stroke-linecap="round" stroke-linejoin="round"/>
<path d="M19.833 18.6674H22.1663" stroke="#292C32" stroke-width="1.75" stroke-linecap="round" stroke-linejoin="round"/>
<path d="M9.91684 13.1723C11.0831 13.1723 12.0285 12.2269 12.0285 11.0606C12.0285 9.8944 11.0831 8.94897 9.91684 8.94897C8.7506 8.94897 7.80518 9.8944 7.80518 11.0606C7.80518 12.2269 8.7506 13.1723 9.91684 13.1723Z" stroke="#292C32" stroke-width="1.75" stroke-linecap="round" stroke-linejoin="round"/>
<path d="M13.9997 19.0521C13.8363 17.3605 12.4947 16.0305 10.803 15.8788C10.2197 15.8205 9.62467 15.8205 9.02967 15.8788C7.33801 16.0421 5.99634 17.3605 5.83301 19.0521" stroke="#292C32" stroke-width="1.75" stroke-linecap="round" stroke-linejoin="round"/>
</svg>
