<svg width="29" height="29" viewBox="0 0 29 29" fill="none" xmlns="http://www.w3.org/2000/svg">
<path d="M21.9189 26.1244C20.8556 26.4386 19.5989 26.5836 18.1247 26.5836H10.8747C9.40057 26.5836 8.1439 26.4386 7.08057 26.1244C7.3464 22.9827 10.5726 20.5056 14.4997 20.5056C18.4268 20.5056 21.6531 22.9827 21.9189 26.1244Z" stroke="#292D32" stroke-width="1.5" stroke-linecap="round" stroke-linejoin="round"/>
<path d="M18.1243 2.41693H10.8743C4.83268 2.41693 2.41602 4.8336 2.41602 10.8753V18.1253C2.41602 22.6928 3.79352 25.194 7.08018 26.1244C7.34602 22.9828 10.5723 20.5056 14.4993 20.5056C18.4264 20.5056 21.6527 22.9828 21.9185 26.1244C25.2052 25.194 26.5827 22.6928 26.5827 18.1253V10.8753C26.5827 4.8336 24.166 2.41693 18.1243 2.41693ZM14.4993 17.1223C12.1068 17.1223 10.1735 15.177 10.1735 12.7845C10.1735 10.392 12.1068 8.4586 14.4993 8.4586C16.8918 8.4586 18.8252 10.392 18.8252 12.7845C18.8252 15.177 16.8918 17.1223 14.4993 17.1223Z" stroke="#292D32" stroke-width="1.5" stroke-linecap="round" stroke-linejoin="round"/>
<path d="M18.8255 12.7844C18.8255 15.1769 16.8922 17.1223 14.4997 17.1223C12.1072 17.1223 10.1738 15.1769 10.1738 12.7844C10.1738 10.3919 12.1072 8.45856 14.4997 8.45856C16.8922 8.45856 18.8255 10.3919 18.8255 12.7844Z" stroke="#292D32" stroke-width="1.5" stroke-linecap="round" stroke-linejoin="round"/>
</svg>
