<svg width="29" height="29" viewBox="0 0 29 29" fill="none" xmlns="http://www.w3.org/2000/svg">
<path d="M9.66617 26.5836H19.3328C24.1903 26.5836 25.0603 24.6382 25.3141 22.2698L26.2203 12.6032C26.5466 9.65483 25.7008 7.25024 20.5412 7.25024H8.45784C3.29826 7.25024 2.45242 9.65483 2.77867 12.6032L3.68492 22.2698C3.93867 24.6382 4.80867 26.5836 9.66617 26.5836Z" stroke="#292D32" stroke-width="1.5" stroke-miterlimit="10" stroke-linecap="round" stroke-linejoin="round"/>
<path d="M9.66602 7.25023V6.28357C9.66602 4.14482 9.66602 2.4169 13.5327 2.4169H15.466C19.3327 2.4169 19.3327 4.14482 19.3327 6.28357V7.25023" stroke="#292D32" stroke-width="1.5" stroke-miterlimit="10" stroke-linecap="round" stroke-linejoin="round"/>
<path d="M16.9163 15.7086V16.9169C16.9163 16.929 16.9163 16.929 16.9163 16.9411C16.9163 18.2582 16.9043 19.3336 14.4997 19.3336C12.1072 19.3336 12.083 18.2702 12.083 16.9532V15.7086C12.083 14.5002 12.083 14.5002 13.2913 14.5002H15.708C16.9163 14.5002 16.9163 14.5002 16.9163 15.7086Z" stroke="#292D32" stroke-width="1.5" stroke-miterlimit="10" stroke-linecap="round" stroke-linejoin="round"/>
<path d="M26.1598 13.2919C23.3685 15.3219 20.1785 16.5302 16.916 16.9411" stroke="#292D32" stroke-width="1.5" stroke-miterlimit="10" stroke-linecap="round" stroke-linejoin="round"/>
<path d="M3.16553 13.6182C5.88428 15.479 8.95344 16.6027 12.083 16.9532" stroke="#292D32" stroke-width="1.5" stroke-miterlimit="10" stroke-linecap="round" stroke-linejoin="round"/>
</svg>
