<svg width="29" height="30" viewBox="0 0 29 30" fill="none" xmlns="http://www.w3.org/2000/svg">
<path d="M9.79696 27.5343H5.01111C2.63003 27.5343 1.48096 26.4326 1.48096 24.1582V5.44125C1.48096 3.16679 2.64188 2.06509 5.01111 2.06509H9.79696C12.178 2.06509 13.3271 3.16679 13.3271 5.44125V24.1582C13.3271 26.4326 12.1662 27.5343 9.79696 27.5343ZM5.01111 3.84202C3.50665 3.84202 3.25788 4.24479 3.25788 5.44125V24.1582C3.25788 25.3546 3.50665 25.7574 5.01111 25.7574H9.79696C11.3014 25.7574 11.5502 25.3546 11.5502 24.1582V5.44125C11.5502 4.24479 11.3014 3.84202 9.79696 3.84202H5.01111Z" fill="#292C32"/>
<path d="M23.419 16.8728H18.6332C16.2521 16.8728 15.103 15.7711 15.103 13.4966V5.44125C15.103 3.16679 16.2639 2.06509 18.6332 2.06509H23.419C25.8001 2.06509 26.9492 3.16679 26.9492 5.44125V13.4966C26.9492 15.7711 25.7883 16.8728 23.419 16.8728ZM18.6332 3.84202C17.1287 3.84202 16.88 4.24479 16.88 5.44125V13.4966C16.88 14.6931 17.1287 15.0959 18.6332 15.0959H23.419C24.9235 15.0959 25.1723 14.6931 25.1723 13.4966V5.44125C25.1723 4.24479 24.9235 3.84202 23.419 3.84202H18.6332Z" fill="#292C32"/>
<path d="M23.419 27.5338H18.6332C16.2521 27.5338 15.103 26.4321 15.103 24.1576V22.0253C15.103 19.7508 16.2639 18.6491 18.6332 18.6491H23.419C25.8001 18.6491 26.9492 19.7508 26.9492 22.0253V24.1576C26.9492 26.4321 25.7883 27.5338 23.419 27.5338ZM18.6332 20.4261C17.1287 20.4261 16.88 20.8288 16.88 22.0253V24.1576C16.88 25.3541 17.1287 25.7568 18.6332 25.7568H23.419C24.9235 25.7568 25.1723 25.3541 25.1723 24.1576V22.0253C25.1723 20.8288 24.9235 20.4261 23.419 20.4261H18.6332Z" fill="#292C32"/>
</svg>
