<svg width="29" height="29" viewBox="0 0 29 29" fill="none" xmlns="http://www.w3.org/2000/svg">
<path d="M12.2158 13.473H9.01371C8.25246 13.473 7.63623 14.0892 7.63623 14.8504V21.0371H12.2158V13.473V13.473Z" stroke="#292C32" stroke-width="1.5" stroke-miterlimit="10" stroke-linecap="round" stroke-linejoin="round"/>
<path d="M15.4192 7.97498H13.5826C12.8213 7.97498 12.2051 8.59124 12.2051 9.35249V21.025H16.7847V9.35249C16.7847 8.59124 16.1805 7.97498 15.4192 7.97498Z" stroke="#292C32" stroke-width="1.5" stroke-miterlimit="10" stroke-linecap="round" stroke-linejoin="round"/>
<path d="M19.995 15.5271H16.793V21.025H21.3726V16.9046C21.3605 16.1433 20.7442 15.5271 19.995 15.5271Z" stroke="#292C32" stroke-width="1.5" stroke-miterlimit="10" stroke-linecap="round" stroke-linejoin="round"/>
<path d="M10.8743 26.5833H18.1243C24.166 26.5833 26.5827 24.1667 26.5827 18.125V10.875C26.5827 4.83332 24.166 2.41666 18.1243 2.41666H10.8743C4.83268 2.41666 2.41602 4.83332 2.41602 10.875V18.125C2.41602 24.1667 4.83268 26.5833 10.8743 26.5833Z" stroke="#292C32" stroke-width="1.5" stroke-linecap="round" stroke-linejoin="round"/>
</svg>
