<svg width="26" height="26" viewBox="0 0 26 26" fill="none" xmlns="http://www.w3.org/2000/svg">
<path opacity="0.4" d="M18.062 0H7.39535C2.76212 0 0 2.76212 0 7.39535V18.0492C0 22.6952 2.76212 25.4573 7.39535 25.4573H18.0492C22.6825 25.4573 25.4446 22.6952 25.4446 18.062V7.39535C25.4573 2.76212 22.6952 0 18.062 0Z" fill="#EBEBEB"/>
<path d="M12.7299 14.0018C12.0171 14.0018 11.457 13.429 11.457 12.7289C11.457 12.0288 12.0298 11.4561 12.7299 11.4561C13.43 11.4561 14.0028 12.0288 14.0028 12.7289C14.0028 13.429 13.4427 14.0018 12.7299 14.0018Z" fill="#292D32"/>
<path d="M17.8217 14.0018C17.1089 14.0018 16.5488 13.429 16.5488 12.7289C16.5488 12.0288 17.1216 11.4561 17.8217 11.4561C18.5218 11.4561 19.0946 12.0288 19.0946 12.7289C19.0946 13.429 18.5345 14.0018 17.8217 14.0018Z" fill="#292D32"/>
<path d="M7.6381 14.0018C6.9253 14.0018 6.36523 13.429 6.36523 12.7289C6.36523 12.0288 6.93802 11.4561 7.6381 11.4561C8.33818 11.4561 8.91097 12.0288 8.91097 12.7289C8.91097 13.429 8.35091 14.0018 7.6381 14.0018Z" fill="#292D32"/>
</svg>
